PathFileType	4	(X/Y/Z)	Patient4_TMGait_0pt5_02_right_07.trc.trc
DataRate	CameraRate	NumFrames	NumMarkers	Units	OrigDataRate	OrigDataStartFrame	OrigNumFrames
76.502732240437	76.502732240437	4	33	mm	76.502732240437	18	       141
Frame#	Time	Sacral			L.Shoulder			Chest			R.Shoulder			Neck			R.ASIS			L.ASIS			R.Thigh.Superior			R.Thigh.Lateral			R.Thigh.Inferior			R.Patella			L.Thigh.Superior			L.Thigh.Lateral			L.Thigh.Inferior			L.Patella			L.Shank.Superior			L.Shank.Lateral			L.Shank.Inferior			R.Shank.Superior			R.Shank.Lateral			R.Shank.Inferior			R.Heel			R.Midfoot.Superior			R.Midfoot.Lateral			R.Toe			L.Heel			L.Midfoot.Lateral			L.Midfoot.Superior			L.Toe			L.Elbow			L.Wrist			R.Elbow			R.Wrist			
		X1	Y1	Z1	X2	Y2	Z2	X3	Y3	Z3	X4	Y4	Z4	X5	Y5	Z5	X6	Y6	Z6	X7	Y7	Z7	X8	Y8	Z8	X9	Y9	Z9	X10	Y10	Z10	X11	Y11	Z11	X12	Y12	Z12	X13	Y13	Z13	X14	Y14	Z14	X15	Y15	Z15	X16	Y16	Z16	X17	Y17	Z17	X18	Y18	Z18	X19	Y19	Z19	X20	Y20	Z20	X21	Y21	Z21	X22	Y22	Z22	X23	Y23	Z23	X24	Y24	Z24	X25	Y25	Z25	X26	Y26	Z26	X27	Y27	Z27	X28	Y28	Z28	X29	Y29	Z29	X30	Y30	Z30	X31	Y31	Z31	X32	Y32	Z32	X33	Y33	Z33	

18	9.372214285714	534.907103259821	1009.787128314278	432.948454682404	747.124767147338	1434.932602746713	276.256695976890	826.172216126165	1358.736942451596	447.439227624838	724.027365902657	1434.929730999526	611.003538373244	727.222984028914	1493.105733114638	426.628066092531	750.045840833711	938.815499536154	570.985543552077	760.493044480971	957.859696993518	296.318248752367	819.904026974937	764.876647405307	545.729616493842	773.259113584607	645.814186397422	617.417879560469	861.480311784178	604.086367579978	538.049669260169	893.809932067104	520.617570754745	556.664047793789	764.426693557049	731.802101064890	325.489216463226	650.876815053287	636.325469799166	263.280859048956	710.106961696284	545.132781398400	330.640828048363	697.318778661322	479.140683572443	341.555645766186	667.024248915362	413.822014205210	334.970491169886	573.310166657978	302.403730851759	286.467249248265	616.327739753002	191.862333480813	364.126094139726	877.182229504835	435.160837737946	566.140283314648	823.771490770045	321.513257060595	628.195531208211	894.563680621252	235.942820485664	577.804087632826	802.749940623514	48.415722207718	546.132573351075	963.152733555947	123.100597445251	589.096037848884	886.206243110551	45.306424382386	621.427805147644	1088.645998118684	87.528801990206	618.431342856888	481.387745693667	38.631256521637	411.013554909166	555.785791106244	34.831835604308	330.883093391040	639.785230803986	95.126821762630	356.945638692163	767.947575430986	40.572402845977	330.716337110448	806.525914431490	1117.122220701991	104.231709857580	1058.096461970660	1053.641825148239	102.790885600859	566.854864192794	1123.739077308700	703.621852519444	542.593273560020	863.023656516736	705.005266911930	
19	9.385285714286	535.924722991318	1007.882784563540	434.496405778088	746.342154956080	1433.497669942152	277.604195338403	825.609571254076	1357.709291495970	448.836103371601	723.355345770571	1433.769338975585	612.373940959457	726.406008768714	1491.808592860861	427.893397042254	750.635474232894	937.026546121493	572.455188591424	761.321048575079	956.951752636142	297.710801206738	818.928019237214	761.451739024413	547.626632586635	770.361118480781	642.641639061126	618.651172590073	858.731569283887	600.424213334790	539.610561643782	890.493491292827	518.178374192282	557.288751881908	763.294919510192	730.447019585154	326.459616051308	648.821701673847	635.973595753976	263.932283617426	707.053150845643	544.161493272028	331.238294931470	693.841523579589	478.118698576150	341.908256620252	662.759447836587	413.215821124534	335.279427247947	568.138353792164	302.538095000081	286.617442508544	610.459066804667	191.571716384279	364.103193168806	875.798639432933	433.202433019847	566.750464540603	824.935629576140	318.214687667453	628.522193013456	898.035107902093	234.400925157224	578.087707848843	810.467726710141	45.382943544069	546.051942216947	969.790854276488	122.376858680556	589.177695254033	893.852115363372	43.689396408748	621.444860200786	1095.754421553507	88.547562019818	618.604268527965	474.800842298819	38.665358888476	410.984790193954	549.181699459908	34.821513547253	330.872376731230	633.185814030565	95.067790737643	356.936594192551	761.318076395518	40.522450220911	330.727403053935	807.924804437688	1115.700188070548	106.362347243835	1059.893847143723	1053.847679199000	105.393212492905	566.739169212379	1122.344662038373	704.661021384606	542.499032313047	861.589770539791	705.498550543922	
20	9.398357142857	537.163041167670	1005.873819117506	436.272431098698	745.459969075027	1432.061253209665	279.108107257801	825.074926767760	1356.720891231111	450.349475608357	722.729834461466	1432.545543863387	613.926388414790	725.553060507623	1490.498531625297	429.352281752864	751.474082962650	935.223203749423	574.047435978866	762.320578190160	956.004206891576	299.244326488941	818.588515108674	758.318588181302	549.609245851014	768.140365818602	639.578174315400	619.737441506906	856.804559252486	597.093075353480	541.139714566061	887.915319881402	515.704423104129	557.902518055172	762.415220815372	729.073411257611	327.630023002134	647.118882454061	635.562828754056	264.743980316194	704.371017127350	543.149501295861	332.013806579043	690.715724824273	477.012502297593	342.461873079194	658.824089017890	412.528918574403	335.740693008755	563.218767205513	302.691894436018	286.863893082536	604.717208216532	191.250993765249	364.135161021519	874.464407650273	430.990689597275	567.195090674102	825.077052656992	315.165268813283	628.468844982961	899.690617696715	232.576015060722	578.050558813954	814.661844575123	43.323619104936	545.518222643462	973.537627229238	120.921365909466	588.942832015996	897.784729201952	42.337781653788	621.115332676727	1099.443526190610	87.594274456909	618.573166990711	468.218833317811	38.717384636114	410.929522693644	542.592054731889	34.820348269134	330.855705324633	626.594748388973	95.019390088127	356.933688217233	754.701353608997	40.457574520437	330.737555147314	808.771892680115	1114.051882158779	108.744820162768	1061.008472799706	1053.115943892994	108.031057889195	567.433752384907	1120.469913261904	706.033627253256	543.959299196420	859.597085519337	706.171180184977	
21	9.411428571429	538.568922115576	1003.827040097701	438.257978465180	744.517083545603	1430.651529643171	280.772510536824	824.587820997016	1355.792374597400	451.993280814395	722.151971987956	1431.284149879266	615.662339486367	724.685912900975	1489.201829358070	431.016021810767	752.561343879254	933.449395160734	575.755927450692	763.462749720565	955.024658744170	300.917729729351	818.913331273722	755.541016980760	551.627046959214	766.661992242100	636.698824681963	620.665780330093	855.736741970525	594.177359203872	542.589346592605	886.148926290074	513.285256155712	558.456598228369	761.782830631509	727.691451286133	328.977906777842	645.733421358242	635.108954874249	265.718549529022	702.033863376886	542.105680206776	332.955255588931	687.916852176700	475.838367263339	343.205945549341	655.201687314573	411.773576493927	336.352599112258	558.536959863517	302.876378441957	287.210612207312	599.096965525871	190.912402833934	364.223210008983	873.309439383008	428.580718529699	567.459743720113	824.427951801515	312.346801955415	628.115726865802	899.771016800667	230.437697370914	577.716943174362	815.607131203468	42.022965769669	544.659727703657	974.666264505274	118.746011456634	588.428859283701	898.353839712358	41.145420998687	620.538876589824	1100.095080579603	84.825409106309	618.338347949167	461.640857063542	38.799859592879	410.841315755733	536.020691078504	34.832032038670	330.831409031783	620.016559067522	94.987306856626	356.933649438727	748.102923427337	40.374159755168	330.743905001135	809.055488025236	1112.198468804716	111.364545314710	1061.431946936988	1051.435478384193	110.678770750313	568.848141744313	1118.196869473784	707.731060695253	546.911491905055	857.135595044129	707.085599626351	
